<svg xmlns="http://www.w3.org/2000/svg" viewBox="0 0 194.96 194.96"><defs><style>.cls-1{fill:none;}.cls-2{fill:#00a6d5;}</style></defs><g id="Layer_2" data-name="Layer 2"><g id="Layer_1-2" data-name="Layer 1"><g id="Path_1608" data-name="Path 1608"><path class="cls-1" d="M28.4,28.4c38-38,99.7-37.85,137.85.31s38.3,99.87.31,137.85-99.7,37.85-137.86-.31S-9.59,66.38,28.4,28.4Z"/><path class="cls-2" d="M49.61,49.61c-26.23,26.23-26.09,69,.31,95.43s69.2,26.54,95.43.31,26.09-69-.31-95.43-69.2-26.54-95.43-.31M28.4,28.4c38-38,99.7-37.85,137.85.31s38.29,99.87.31,137.85-99.7,37.85-137.85-.31S-9.59,66.38,28.4,28.4Z"/></g></g></g></svg>