<svg id="Layer_1" data-name="Layer 1" xmlns="http://www.w3.org/2000/svg" viewBox="0 0 490.83 750.3"><defs><style>.cls-1{opacity:0.42;}.cls-2{fill:none;stroke:#fff;stroke-miterlimit:10;}</style></defs><g class="cls-1"><g id="BACKGROUND"><path id="Path_1599" data-name="Path 1599" class="cls-2" d="M84.52,46.3S148.39,158.88,306,138.9C482.81,116.45,558.8,246.52,515,335.37S276.66,443,303.84,586.89s-209.31,209-209.31,209" transform="translate(-36.8 -46.05)"/><path id="Path_1600" data-name="Path 1600" class="cls-2" d="M37,176.44s134.77,48.81,268.86,31.28S455.6,269,439.91,300.32C407.38,365.4,233.44,377.92,222.17,483,213.71,562,281,668.24,128.32,724.6" transform="translate(-36.8 -46.05)"/><path id="Path_1601" data-name="Path 1601" class="cls-2" d="M97,229s137.74-17.56,113.16,60.07c-28.19,89-94.42,87.59-31.83,200.22,22.25,40.05,28.79,201.44-93.85,168.93" transform="translate(-36.8 -46.05)"/><ellipse id="Ellipse_35" data-name="Ellipse 35" class="cls-2" cx="293.62" cy="239.25" rx="61.94" ry="33.79"/></g></g></svg>