<svg id="Layer_1" data-name="Layer 1" xmlns="http://www.w3.org/2000/svg" viewBox="0 0 500.94 625.4"><defs><style>.cls-1{opacity:0.4;}.cls-2{fill:none;stroke:#fff;stroke-miterlimit:10;}</style></defs><g id="Group_93" data-name="Group 93" class="cls-1"><path id="Path_1613" data-name="Path 1613" class="cls-2" d="M540.63,201.45c-48.57-20.39-86.13-61.95-135.22-81-40.71-15.84-91.33-13.06-122.94,17.1-25.81,24.62-34.42,61.76-41.82,96.66q-12,56.7-24.05,113.41c-2.18,10.28-4.46,20.8-10.11,29.65-7,10.92-18.29,18.14-29.12,25.24-35.32,23.18-69.58,49.36-94.19,83.7s-38.66,78.08-30,119.42c3.92,18.6,12.23,36,21.86,52.4C82,669.65,90,681.35,102,687.68c10,5.26,21.54,6.23,32.78,6.85a800.45,800.45,0,0,0,143.43-5.22c30.27-3.8,61.61-9.15,90.77-.2,15.47,4.76,29.6,13.37,45.26,17.43,9.81,2.54,20.3,3.33,29.08,8.38,7.72,4.45,13.43,11.85,21.23,16.17,12.2,6.75,27.74,4.75,40.13-1.65s22.3-16.63,32-26.67" transform="translate(-50.14 -110.39)"/><path id="Path_1614" data-name="Path 1614" class="cls-2" d="M546,299.48a388.68,388.68,0,0,0-154.66-53c-10-1.18-20.76-1.86-29.75,2.77-6,3.1-10.69,8.31-15,13.57-32.42,39.89-51.3,88.79-69.67,136.8-66,36.23-112.16,106.28-119.48,181.19-.58,5.87-.88,12,1.52,17.44,5.07,11.41,19.45,14.62,31.81,16.4,51.13,7.31,103.65,14.58,154,3C369.3,612,392.78,602,417.69,598.79c5.2-.67,10.77-1,15.38,1.53,5.29,2.86,8.1,8.68,11.68,13.51,12.51,16.86,36.65,22.2,56.86,16.5s36.7-20.61,49.06-37.57" transform="translate(-50.14 -110.39)"/><path id="Path_1615" data-name="Path 1615" class="cls-2" d="M550.38,391.05a921.9,921.9,0,0,0-122.14-.51c-17,1.06-34.25,2.63-50.37,8.23-24.13,8.38-44.53,25.43-60.55,45.31a199.65,199.65,0,0,0-35.38,66.7c-1.84,6-3.34,12.7-.64,18.35,4.67,9.79,18.2,10.39,29,9.13A403.82,403.82,0,0,0,413,512.12c20.19-8.08,42.11-18,62.79-11.27,5,1.62,9.7,4.17,14.86,5.09,14.33,2.56,27.45-7.78,38.35-17.43,6.55-5.8,13.55-12.49,14.25-21.2" transform="translate(-50.14 -110.39)"/></g><g id="Group_93-2" data-name="Group 93" class="cls-1"><path id="Path_1613-2" data-name="Path 1613" class="cls-2" d="M540.63,201.45c-48.57-20.39-86.13-61.95-135.22-81-40.71-15.84-91.33-13.06-122.94,17.1-25.81,24.62-34.42,61.76-41.82,96.66q-12,56.7-24.05,113.41c-2.18,10.28-4.46,20.8-10.11,29.65-7,10.92-18.29,18.14-29.12,25.24-35.32,23.18-69.58,49.36-94.19,83.7s-38.66,78.08-30,119.42c3.92,18.6,12.23,36,21.86,52.4C82,669.65,90,681.35,102,687.68c10,5.26,21.54,6.23,32.78,6.85a800.45,800.45,0,0,0,143.43-5.22c30.27-3.8,61.61-9.15,90.77-.2,15.47,4.76,29.6,13.37,45.26,17.43,9.81,2.54,20.3,3.33,29.08,8.38,7.72,4.45,13.43,11.85,21.23,16.17,12.2,6.75,27.74,4.75,40.13-1.65s22.3-16.63,32-26.67" transform="translate(-50.14 -110.39)"/><path id="Path_1614-2" data-name="Path 1614" class="cls-2" d="M546,299.48a388.68,388.68,0,0,0-154.66-53c-10-1.18-20.76-1.86-29.75,2.77-6,3.1-10.69,8.31-15,13.57-32.42,39.89-51.3,88.79-69.67,136.8-66,36.23-112.16,106.28-119.48,181.19-.58,5.87-.88,12,1.52,17.44,5.07,11.41,19.45,14.62,31.81,16.4,51.13,7.31,103.65,14.58,154,3C369.3,612,392.78,602,417.69,598.79c5.2-.67,10.77-1,15.38,1.53,5.29,2.86,8.1,8.68,11.68,13.51,12.51,16.86,36.65,22.2,56.86,16.5s36.7-20.61,49.06-37.57" transform="translate(-50.14 -110.39)"/><path id="Path_1615-2" data-name="Path 1615" class="cls-2" d="M550.38,391.05a921.9,921.9,0,0,0-122.14-.51c-17,1.06-34.25,2.63-50.37,8.23-24.13,8.38-44.53,25.43-60.55,45.31a199.65,199.65,0,0,0-35.38,66.7c-1.84,6-3.34,12.7-.64,18.35,4.67,9.79,18.2,10.39,29,9.13A403.82,403.82,0,0,0,413,512.12c20.19-8.08,42.11-18,62.79-11.27,5,1.62,9.7,4.17,14.86,5.09,14.33,2.56,27.45-7.78,38.35-17.43,6.55-5.8,13.55-12.49,14.25-21.2" transform="translate(-50.14 -110.39)"/></g></svg>