<svg id="Layer_1" data-name="Layer 1" xmlns="http://www.w3.org/2000/svg" viewBox="0 0 584.76 764.83"><defs><style>.cls-1{opacity:0.4;}.cls-2{fill:none;stroke:#fff;stroke-miterlimit:10;}</style></defs><g id="Group_92" data-name="Group 92" class="cls-1"><path id="Path_1609" data-name="Path 1609" class="cls-2" d="M38.77,802.09c66.95-1.58,134.75,3.85,200.28-9.92S369.85,740.89,395.33,679c7.72-18.73,11.47-38.83,17.49-58.18a259.69,259.69,0,0,1,103.42-138c15-10,31.23-18.48,43.92-31.26,19.45-19.61,28.66-47.8,29.29-75.42.92-40.4-15.27-79.83-39.11-112.45s-55-59.13-87.21-83.55c-83.05-63-181.47-115.86-285.58-110.55C150.62,71,122.05,76,97.84,64.08c-8.52-4.18-16-10.25-24.23-14.93A84.68,84.68,0,0,0,20,39.12" transform="translate(-5.23 -37.76)"/><path id="Path_1610" data-name="Path 1610" class="cls-2" d="M42.74,709.33c55.47,3.14,115.1,5.25,162-24.61,67.47-43,83.66-135.49,139.84-192.48,21-21.33,47.41-37.35,65.7-61.05a120.92,120.92,0,0,0,23.18-52.3c1.27-7.09,1.86-14.62-.85-21.28-2.6-6.39-7.9-11.22-13-15.83l-66.15-59.3c-20.46-18.33-41.15-36.84-65.29-50-28.59-15.53-60.81-22.86-91-34.95-32.84-13.15-63.9-32.14-98.81-37.84-31.1-5.08-64.82.43-92.8-14.05" transform="translate(-5.23 -37.76)"/><path id="Path_1611" data-name="Path 1611" class="cls-2" d="M37.64,617.34c44.27-13.72,80.34-46.2,110.1-81.74s54.76-75,86-109.24c4.25-4.66,8.7-9.35,11.22-15.14s2.93-12.13,3.32-18.38c1.5-24,2.7-49.56-8.89-70.67-7-12.71-18-22.68-29.7-31.27A230.79,230.79,0,0,0,52.12,247.5" transform="translate(-5.23 -37.76)"/><path id="Path_1612" data-name="Path 1612" class="cls-2" d="M40.73,514.37a286,286,0,0,0,89.64-76.26c13-16.8,24.43-36.19,24.95-57.4.09-3.46-.15-7-1.69-10.12-2.66-5.31-8.53-8.1-14-10.31a275.28,275.28,0,0,0-106.4-19.7" transform="translate(-5.23 -37.76)"/></g></svg>