<svg id="Layer_1" data-name="Layer 1" xmlns="http://www.w3.org/2000/svg" viewBox="0 0 543.57 428.3"><defs><style>.cls-1{opacity:0.42;}.cls-2{fill:none;stroke:#fff;stroke-miterlimit:10;}</style></defs><g id="Group_94" data-name="Group 94" class="cls-1"><path id="Path_1616" data-name="Path 1616" class="cls-2" d="M553,466.4a595.83,595.83,0,0,1-85.43-45.18c-23.67-15.1-47.85-34.14-54.5-61.42-2.86-11.74-2.22-24.28-6.46-35.6-9.65-25.79-41.18-37.56-52.78-62.54-4-8.54-5.92-19-13.84-24.08-5.21-3.35-11.76-3.48-17.89-4.45-11.29-1.79-21.9-6.74-33.18-8.66-22.21-3.77-46.16,5.47-60.09,23.19s-17.24,43.17-8.33,63.87c1.65,3.82,3.7,7.58,4.14,11.72.89,8.3-5,15.91-11.64,20.89-15,11.19-34.71,13.71-53.43,14-9.35.16-18.89-.17-27.71-3.3-13.33-4.73-23.63-15.32-35.68-22.74a83.08,83.08,0,0,0-41.73-12.23c-4.11-.08-8.38.19-12,2.07s-6.54,5.38-8.93,8.89C8.84,367.06,15.73,421.17,48.62,450.06c4.91,4.3,10.55,8.46,12.62,14.65,1.14,3.43,1,7.13.92,10.74q-2.27,66.7-10.33,133.06c-1.06,8.69-2.07,18,2.14,25.73a27.74,27.74,0,0,0,10,10c13.67,8.39,31.14,8,46.65,3.89s29.9-11.6,45.06-16.85c36.32-12.57,77.7-12.64,109.38-34.4,17.9-12.29,30.85-30.36,46.15-45.76,5.31-5.34,11.08-10.48,18.07-13.27s14.9-3.07,22.53-3.16q35-.37,69.91,2.4c10.1.8,20.65,2,29.11,7.56,16.3,10.8,18.83,33.21,27.61,50.68,14.72,29.28,51.75,45.21,83.13,35.76" transform="translate(-18.18 -223.14)"/><path id="Path_1617" data-name="Path 1617" class="cls-2" d="M313.35,300.29c-18.59,3.2-32.68,18.24-44,33.37s-21.85,31.78-38.28,41c-19.23,10.84-42.64,9.5-64.7,10.32s-46.59,5.6-59.24,23.69c-8.32,11.89-9.7,27.13-10.82,41.6q-3.72,48.29-7.45,96.58c-.56,7.25-1.09,14.68.94,21.65s7.23,13.5,14.35,15c7.32,1.51,14.53-2.47,20.94-6.3L194.2,536c20.73-12.39,42.05-25,65.82-29.28,17.68-3.19,36.42-1.71,53-8.61,5.37-2.24,10.53-5.35,16.31-6s11.54,1.37,17.25,2.62a71,71,0,0,0,40.38-3c7.34-2.81,14.73-6.94,22.54-6,6.93.84,12.68,5.52,18.8,8.88a52.77,52.77,0,0,0,33.59,5.72c1.71-.28,3.53-.72,4.68-2,2-2.23,1-5.72-.34-8.38-9.45-18.63-31-27.78-43.89-44.21-13.53-17.21-16.81-41.4-32.49-56.68-6-5.85-13.61-10.14-18.48-17-3.68-5.15-5.51-11.34-7.64-17.3C356.3,334,341.41,295.46,313.35,300.29Z" transform="translate(-18.18 -223.14)"/><path id="Path_1618" data-name="Path 1618" class="cls-2" d="M204.91,416.29c-22.32,16.22-39.74,38.32-54.59,61.56-7.93,12.4-15.49,26.75-12.42,41.14,19.8,8.16,42.65.87,61.16-9.9s35.2-25,55.32-32.36c30.16-11,64.51-5,94.57-16.28,3.37-1.27,6.75-2.79,9.31-5.32,4-4,5.48-9.93,5.76-15.6,1-20.54-11.78-40.65-30.1-50-20.39-10.38-40.07-5.6-60.6.47C248.71,397.29,226.35,400.71,204.91,416.29Z" transform="translate(-18.18 -223.14)"/><path id="Path_1619" data-name="Path 1619" class="cls-2" d="M489.69,537.36c0,5.72,0,11.5,1.18,17.11,2.92,13.73,12.81,25.12,24.32,33.16,5.79,4,14.06,7.28,19.44,2.71,3.34-2.84,4.12-7.64,4.24-12,.25-8.71-1.18-17.37-2.61-26l-6.66-40c-2.32-13.93-11-39.55-30.93-31.52C482.22,487.46,489.71,522.93,489.69,537.36Z" transform="translate(-18.18 -223.14)"/></g></svg>