<svg id="Layer_1" data-name="Layer 1" xmlns="http://www.w3.org/2000/svg" viewBox="0 0 573.51 725.76"><defs><style>.cls-1{opacity:0.4;}.cls-2{fill:none;stroke:#fff;stroke-miterlimit:10;}</style></defs><g id="Group_97" data-name="Group 97" class="cls-1"><path id="Path_1628" data-name="Path 1628" class="cls-2" d="M36.17,56A493.64,493.64,0,0,1,235.39,233.07c13.41,21,25.29,43.07,41,62.37,16.58,20.34,37,37.1,57.33,53.71,15.26,12.49,30.56,25,47.16,35.64,21.32,13.66,44.53,24,67,35.69,48,24.81,94.56,57.11,121.24,104.1,12.4,21.84,18.58,52.83-.19,69.53-9.67,8.59-23.35,10.74-34.7,16.94C488.21,636.27,499,712.32,457.51,744.53c-25.43,19.74-61.1,15.87-93,20.08-29.9,3.94-59,15.76-89.1,14.33-18.52-.89-36.58-6.78-55.11-7-20.86-.2-41.59,6.87-62.29,4.28-29-3.62-57.67-25.7-84.6-14.41-16.16,6.78-31.76,25-47.24,16.84" transform="translate(-7.85 -55.51)"/><path id="Path_1629" data-name="Path 1629" class="cls-2" d="M32.75,175c23,2.18,42.15,18.66,56.57,36.72,21.29,26.64,36,58.24,59,83.5,15.22,16.77,33.61,30.27,51.38,44.31C270.66,395.61,335,463,417.8,499.59c13.95,6.16,29.49,12.42,36.53,25.95,4.32,8.3,4.65,18.05,4.62,27.42-.08,31.65-4.76,66.82-29,87.2-15.71,13.2-36.79,17.61-57,21.34A2568.56,2568.56,0,0,1,29.73,701.25" transform="translate(-7.85 -55.51)"/><path id="Path_1630" data-name="Path 1630" class="cls-2" d="M32.85,293.81c34.05,29.6,78.83,43.88,115.21,70.56,64.26,47.12,98.57,129.91,169.07,167.06,7.76,4.09,16.73,8.57,19,17.05,2,7.39-2.18,15.09-7.49,20.59-17.22,17.84-44.63,20-69.42,20.67-46.36,1.35-93.2,1.69-138.59-7.85C83.23,574,45.14,559.5,8,568.27" transform="translate(-7.85 -55.51)"/><path id="Path_1631" data-name="Path 1631" class="cls-2" d="M31.75,392.74c27.18-8.76,56.05,7.6,77.06,26.93s39.61,42.93,66.12,53.55c10.38,4.16,21.62,6.15,31.58,11.25,4.53,2.32,8.92,5.47,11.11,10.06s1.48,10.86-2.69,13.77c-3,2.11-7,2.06-10.68,1.92l-73.84-2.71c-33.9-1.25-68.84-2.33-100.6,9.6" transform="translate(-7.85 -55.51)"/></g><g id="Group_97-2" data-name="Group 97" class="cls-1"><path id="Path_1628-2" data-name="Path 1628" class="cls-2" d="M36.17,56A493.64,493.64,0,0,1,235.39,233.07c13.41,21,25.29,43.07,41,62.37,16.58,20.34,37,37.1,57.33,53.71,15.26,12.49,30.56,25,47.16,35.64,21.32,13.66,44.53,24,67,35.69,48,24.81,94.56,57.11,121.24,104.1,12.4,21.84,18.58,52.83-.19,69.53-9.67,8.59-23.35,10.74-34.7,16.94C488.21,636.27,499,712.32,457.51,744.53c-25.43,19.74-61.1,15.87-93,20.08-29.9,3.94-59,15.76-89.1,14.33-18.52-.89-36.58-6.78-55.11-7-20.86-.2-41.59,6.87-62.29,4.28-29-3.62-57.67-25.7-84.6-14.41-16.16,6.78-31.76,25-47.24,16.84" transform="translate(-7.85 -55.51)"/><path id="Path_1629-2" data-name="Path 1629" class="cls-2" d="M32.75,175c23,2.18,42.15,18.66,56.57,36.72,21.29,26.64,36,58.24,59,83.5,15.22,16.77,33.61,30.27,51.38,44.31C270.66,395.61,335,463,417.8,499.59c13.95,6.16,29.49,12.42,36.53,25.95,4.32,8.3,4.65,18.05,4.62,27.42-.08,31.65-4.76,66.82-29,87.2-15.71,13.2-36.79,17.61-57,21.34A2568.56,2568.56,0,0,1,29.73,701.25" transform="translate(-7.85 -55.51)"/><path id="Path_1630-2" data-name="Path 1630" class="cls-2" d="M32.85,293.81c34.05,29.6,78.83,43.88,115.21,70.56,64.26,47.12,98.57,129.91,169.07,167.06,7.76,4.09,16.73,8.57,19,17.05,2,7.39-2.18,15.09-7.49,20.59-17.22,17.84-44.63,20-69.42,20.67-46.36,1.35-93.2,1.69-138.59-7.85C83.23,574,45.14,559.5,8,568.27" transform="translate(-7.85 -55.51)"/><path id="Path_1631-2" data-name="Path 1631" class="cls-2" d="M31.75,392.74c27.18-8.76,56.05,7.6,77.06,26.93s39.61,42.93,66.12,53.55c10.38,4.16,21.62,6.15,31.58,11.25,4.53,2.32,8.92,5.47,11.11,10.06s1.48,10.86-2.69,13.77c-3,2.11-7,2.06-10.68,1.92l-73.84-2.71c-33.9-1.25-68.84-2.33-100.6,9.6" transform="translate(-7.85 -55.51)"/></g></svg>