<svg id="Layer_1" data-name="Layer 1" xmlns="http://www.w3.org/2000/svg" viewBox="0 0 576.55 511.99"><defs><style>.cls-1{opacity:0.4;}.cls-2{fill:none;stroke:#fff;stroke-miterlimit:10;}</style></defs><g id="Group_96" data-name="Group 96" class="cls-1"><path id="Path_1624" data-name="Path 1624" class="cls-2" d="M577.61,622a330.74,330.74,0,0,1-63.27-3.39c-7.06-1.07-14.29-2.43-20.36-6.21-5.86-3.65-10.18-9.25-15.34-13.83-13.77-12.21-32.61-16.48-50.51-20.71-33.48-7.89-67.1-17.26-96.81-34.59s-55.48-43.61-65.85-76.4a706.36,706.36,0,0,1-87-38.53c-21-11-42.57-24.43-52.37-46-5.4-11.87-6.68-25.19-11.19-37.42-8.25-22.4-26.64-39.49-45.91-53.58-4.19-3.06-8.62-6.21-11-10.83-2-4-2.31-8.6-3-13-5.24-33-35.43-58.35-38.61-91.58a60.06,60.06,0,0,1,20.34-50.46,60.1,60.1,0,0,1,53-12.41c16.08,4.08,29.61,14.65,42.61,24.94l44.16,35c10.83,8.58,22.11,17.39,35.54,20.65,7.13,1.74,14.65,1.84,21.53,4.38,7.55,2.79,13.72,8.27,20.07,13.21a171.77,171.77,0,0,0,71.61,32.71c15.75,3.14,32.16,4,47.81.45,23.85-5.44,47.62-21,70.84-13.34,4,1.32,7.83,3.39,10.37,6.71s3.55,7.64,4.1,11.82c3.39,25.7-7.14,52-2.34,77.44,4.39,23.28,20.8,42.17,31.41,63.35a134.71,134.71,0,0,1,13.71,71.35c-.41,4.88-1.05,10,1,14.46,1.9,4.05,5.77,6.78,9.55,9.19A213.5,213.5,0,0,0,587,515.2" transform="translate(-15.65 -110.83)"/><path id="Path_1625" data-name="Path 1625" class="cls-2" d="M586,609.53c-15.1-4.95-30-10.56-44.86-16.16C464,564.3,384.8,534,324.5,477.81c-16-14.87-30.55-31.5-48.81-43.43-15.71-10.26-33.95-16.9-47.62-29.76-8.39-7.9-14.73-17.87-23.57-25.27-6.25-5.23-13.56-9-20.58-13.17-32.4-19.18-59-46.72-83.25-75.53C88.79,276.53,77.25,261.82,69.73,245S59,208.74,64.25,191.05c1.41-4.76,3.52-9.48,7.19-12.83,4-3.67,9.52-5.32,14.93-5.95,23.77-2.77,46.11,11.83,63.32,28.46s32.19,36.26,53.06,48c15,8.41,32.06,12.17,48.85,15.82,39,8.48,79.3,17,118.37,9,9.28-1.91,18.74-4.74,28.07-3.05,14.59,2.64,25.37,16.29,28.45,30.8,3.19,15-.41,30.46-1.7,45.73a152.76,152.76,0,0,0,21,90.71c3.31,5.53,7.07,11.07,8.06,17.45.86,5.49-.42,11.1,0,16.64,1.29,18.77,20.28,30.81,37.78,37.74a260.2,260.2,0,0,0,99.25,18.17" transform="translate(-15.65 -110.83)"/><path id="Path_1626" data-name="Path 1626" class="cls-2" d="M585.81,578.13C553.15,560.29,517,550,482.4,536.3s-68.9-31.74-92-60.94c-7.59-9.6-14-20.43-23.67-27.92-5.79-4.49-12.51-7.58-19.11-10.75a610.17,610.17,0,0,1-148-100.18C188.22,326,176.21,312.2,179.35,297c18.93-5.08,38.44,3.84,56.33,11.84,36.94,16.52,77.73,30.25,117.3,21.8,9.88-2.11,21.58-5.13,29,1.74s5.23,18.84,4.88,29c-.79,22.52,10.45,43.51,21.36,63.23l26.54,47.93c6.13,11.07,12.45,22.38,22,30.67,8.69,7.53,19.5,12.08,30.12,16.5l30.64,12.78,74.49,31" transform="translate(-15.65 -110.83)"/><path id="Path_1627" data-name="Path 1627" class="cls-2" d="M287.45,347.84c-10.08-2.65-20.42-4.16-30.73-5.65-3.27,6-.59,13.88,4.28,18.72s11.48,7.42,17.79,10.13a263.26,263.26,0,0,1,42.33,23c4.55,3.05,9.1,6.28,14.34,7.87a30,30,0,0,0,15.92.12c5.79-1.45,11.68-4.89,13.43-10.6C369.53,376.06,300.48,351.28,287.45,347.84Z" transform="translate(-15.65 -110.83)"/></g></svg>